<svg width="40" height="40" viewBox="0 0 40 40" fill="none" xmlns="http://www.w3.org/2000/svg">
<path d="M20 3.3335C16.3181 3.3335 13.3333 6.31826 13.3333 10.0002C13.3333 13.6821 16.3181 16.6668 20 16.6668C23.6819 16.6668 26.6666 13.6821 26.6666 10.0002C26.6666 6.31826 23.6819 3.3335 20 3.3335ZM28.3333 20.0002L11.6666 20.0002C8.90517 20.0002 6.66663 22.2388 6.66663 25.0002C6.66663 28.7204 8.19653 31.7011 10.7071 33.7162C13.178 35.6995 16.4897 36.6669 20 36.6669C23.5102 36.6669 26.8219 35.6995 29.2928 33.7162C31.8034 31.7011 33.3333 28.7204 33.3333 25.0002C33.3333 22.2387 31.0947 20.0002 28.3333 20.0002Z" fill="#22AFFF"/>
</svg>
