<svg width="20" height="19" viewBox="0 0 20 19" fill="none" xmlns="http://www.w3.org/2000/svg">
<path d="M13.4795 4.87487L17.6779 9.07332C18.0257 9.42113 18.0257 9.98504 17.6779 10.3329L13.4795 14.5313C13.1317 14.8791 12.5677 14.8791 12.2199 14.5313C11.8721 14.1835 11.8721 13.6196 12.2199 13.2718L14.8975 10.5931L4.57812 10.5937C4.12724 10.5937 3.7546 10.2587 3.69563 9.82394L3.6875 9.70309C3.6875 9.21121 4.08625 8.81246 4.57812 8.81246L14.8975 8.81183L12.2199 6.13441C11.8721 5.7866 11.8721 5.22268 12.2199 4.87487C12.5677 4.52706 13.1317 4.52706 13.4795 4.87487Z" fill="#22AFFF"/>
</svg>
