<svg width="28" height="26" viewBox="0 0 28 26" fill="none" xmlns="http://www.w3.org/2000/svg">
<path d="M9.99216 0.4875L12.1647 2.09476L8.94878 5.43461C8.7933 5.59608 8.57746 5.6875 8.35172 5.6875H0V4.0625C0 1.81884 1.84353 0 4.11765 0H8.5098C9.04437 0 9.56451 0.171059 9.99216 0.4875ZM10.1429 6.55382L14.1065 2.4375H22.2353C24.4184 2.4375 26.2048 4.11375 26.3442 6.23289L26.3529 6.5V13.2774C25.8378 13.0978 25.2834 13 24.7059 13V11.375C24.7059 10.4775 23.9685 9.75 23.0588 9.75H16.4706C15.5609 9.75 14.8235 10.4775 14.8235 11.375V13C12.0946 13 9.88235 15.1826 9.88235 17.875V22.75H4.11765C1.84353 22.75 0 20.9312 0 18.6875V7.3125H8.35172C9.02894 7.3125 9.67647 7.03823 10.1429 6.55382ZM14.8235 14.625C13.0042 14.625 11.5294 16.0801 11.5294 17.875V22.75C11.5294 24.5449 13.0042 26 14.8235 26H24.7059C26.5252 26 28 24.5449 28 22.75V17.875C28 16.0801 26.5252 14.625 24.7059 14.625H23.0588V12.1875C23.0588 11.7388 22.6901 11.375 22.2353 11.375H17.2941C16.8393 11.375 16.4706 11.7388 16.4706 12.1875V14.625H14.8235ZM18.1176 14.625V13H21.4118V14.625H18.1176Z" fill="#020617"/>
</svg>
