<svg width="40" height="40" viewBox="0 0 40 40" fill="none" xmlns="http://www.w3.org/2000/svg">
<path d="M2.5 10.625C2.5 8.89911 3.89911 7.5 5.625 7.5H29.375C31.1009 7.5 32.5 8.89911 32.5 10.625V24.375C32.5 26.1009 31.1009 27.5 29.375 27.5H5.625C3.89911 27.5 2.5 26.1009 2.5 24.375V10.625ZM10 11.25V10H7.5V11.25C7.5 11.9404 6.94036 12.5 6.25 12.5H5V15H6.25C8.32107 15 10 13.3211 10 11.25ZM22.5 17.5C22.5 14.7386 20.2614 12.5 17.5 12.5C14.7386 12.5 12.5 14.7386 12.5 17.5C12.5 20.2614 14.7386 22.5 17.5 22.5C20.2614 22.5 22.5 20.2614 22.5 17.5ZM27.5 10H25V11.25C25 13.3211 26.6789 15 28.75 15H30V12.5H28.75C28.0596 12.5 27.5 11.9404 27.5 11.25V10ZM10 23.75C10 21.6789 8.32107 20 6.25 20H5V22.5H6.25C6.94036 22.5 7.5 23.0596 7.5 23.75V25H10V23.75ZM27.5 25V23.75C27.5 23.0596 28.0596 22.5 28.75 22.5H30V20H28.75C26.6789 20 25 21.6789 25 23.75V25H27.5ZM11.25 32.5C9.5835 32.5 8.17089 31.4129 7.6826 29.9092C8.02946 29.9689 8.3861 30 8.75 30H29.375C32.4816 30 35 27.4816 35 24.375V12.7134C36.4565 13.2282 37.5 14.6172 37.5 16.25V24.375C37.5 28.8623 33.8623 32.5 29.375 32.5H11.25Z" fill="#22AFFF"/>
</svg>
