<svg width="40" height="40" viewBox="0 0 40 40" fill="none" xmlns="http://www.w3.org/2000/svg">
<path d="M16.1333 6.6L18.7714 8.57816L14.8664 12.6887C14.6776 12.8875 14.4155 13 14.1414 13H4V11C4 8.23858 6.23858 6 9 6H14.3333C14.9824 6 15.614 6.21053 16.1333 6.6ZM16.3164 14.0662L21.1293 9H31C33.651 9 35.8201 11.0631 35.9894 13.6712L36 14V22.3414C35.3744 22.1203 34.7013 22 34 22V20C34 18.8954 33.1046 18 32 18H24C22.8954 18 22 18.8954 22 20V22C18.6863 22 16 24.6863 16 28V34H9C6.23858 34 4 31.7614 4 29V15H14.1414C14.9637 15 15.75 14.6624 16.3164 14.0662ZM22 24C19.7909 24 18 25.7909 18 28V34C18 36.2091 19.7909 38 22 38H34C36.2091 38 38 36.2091 38 34V28C38 25.7909 36.2091 24 34 24H32V21C32 20.4477 31.5523 20 31 20H25C24.4477 20 24 20.4477 24 21V24H22ZM26 24V22H30V24H26Z" fill="#22AFFF"/>
</svg>
