<svg width="23" height="48" viewBox="0 0 23 48" fill="none" xmlns="http://www.w3.org/2000/svg">
<path d="M20.8203 28.1094C20.8203 22.8359 16.2891 21.2539 12.4414 19.7695V11.8984C13.9453 12.2695 15.1953 13.2852 16.0352 14.8867L19.5117 12.7383C17.8906 9.84766 15.3711 8.38281 12.4414 8.08984V3.59766H10.7031V8.05078C6.44531 8.28516 2.98828 10.9805 2.98828 15.4531C2.98828 20.2773 7.03125 21.8594 10.7031 23.3047V32.5234C7.91016 32.25 5.76172 30.5703 5.37109 27.3086L1.21094 28.3633C2.03125 33.3438 6.17188 36.0195 10.7031 36.2734V41.1172L12.4414 41.0781V36.2539C17.168 35.8828 20.8203 32.8164 20.8203 28.1094ZM7.1875 15.2383C7.1875 13.3438 8.67188 11.9766 10.7031 11.7812V19.0469C8.69141 18.168 7.1875 17.1133 7.1875 15.2383ZM12.4414 32.5039V24.0078C14.7656 25.0234 16.6211 26.1953 16.6211 28.4805C16.6211 30.5508 15.0977 32.2109 12.4414 32.5039Z" fill="#22AFFF"/>
</svg>
