<svg width="26" height="23" viewBox="0 0 26 23" fill="none" xmlns="http://www.w3.org/2000/svg">
<path d="M22.75 6.37353V8.79479C21.8875 8.14271 20.7486 7.74621 19.5 7.74621C16.8076 7.74621 14.625 9.58992 14.625 11.8642C14.625 12.919 15.0944 13.881 15.8663 14.6096H15.4375C13.1938 14.6096 11.375 16.1461 11.375 18.0413C11.375 18.7773 11.5134 19.4674 11.7731 20.1003H4.0625C1.81884 20.1003 0 18.5639 0 16.6686V6.37353H22.75ZM19.5 9.11889C21.2949 9.11889 22.75 10.348 22.75 11.8642C22.75 13.3805 21.2949 14.6096 19.5 14.6096C17.7051 14.6096 16.25 13.3805 16.25 11.8642C16.25 10.348 17.7051 9.11889 19.5 9.11889ZM15.4375 15.9823C14.0913 15.9823 13 16.9042 13 18.0413C13 18.8078 13.1867 19.498 13.5265 20.1003C13.8659 20.702 14.3581 21.2159 14.9697 21.6306C16.1743 22.4473 17.7887 22.8457 19.5 22.8457C21.2112 22.8457 22.8257 22.4473 24.0302 21.6306C25.2541 20.8008 26 19.5733 26 18.0413C26 16.9041 24.9087 15.9823 23.5625 15.9823L15.4375 15.9823ZM18.6875 0.882812C20.9311 0.882812 22.75 2.41924 22.75 4.31451V5.00085H0V4.31451C0 2.41924 1.81884 0.882812 4.0625 0.882812H18.6875Z" fill="#020617"/>
</svg>
