<svg width="20" height="21" viewBox="0 0 20 21" fill="none" xmlns="http://www.w3.org/2000/svg">
<path d="M14 3.67188C15.5977 3.67188 16.9037 4.92079 16.9949 6.4956L17 6.67188V10.6719H13L12.8237 10.677C11.3072 10.7648 10.093 11.9791 10.0051 13.4956L10 13.6719V17.6719H6C4.40232 17.6719 3.09634 16.423 3.00509 14.8481L3 14.6719V6.67188C3 5.07419 4.24892 3.76821 5.82373 3.67697L6 3.67188H14ZM16.9007 11.6729C16.8232 11.9095 16.7018 12.1308 16.5416 12.3247L16.4142 12.4648L11.7929 17.0861C11.5687 17.3103 11.2968 17.4757 11.001 17.5726L11 13.6719L11.0055 13.5226C11.078 12.5395 11.8612 11.754 12.8433 11.6779L13 11.6719L16.9007 11.6729Z" fill="#EEF8FF"/>
</svg>
